<svg width="159" height="140" viewBox="0 0 159 140" fill="none" xmlns="http://www.w3.org/2000/svg">
<path opacity="0.4" d="M87.3953 140C126.543 140 158.278 138.147 158.278 135.862C158.278 133.576 126.543 131.723 87.3953 131.723C48.248 131.723 16.5128 133.576 16.5128 135.862C16.5128 138.147 48.248 140 87.3953 140Z" fill="#8A1114"/>
<path d="M66.6997 27.4339C63.8519 29.7809 61.0698 33.5647 62.7003 37.6702C64.3308 41.7757 74.7645 42.1888 76.958 40.4998C79.8095 38.3063 77.2906 28.538 75.0679 28.4795C74.8997 24.8566 69.0797 25.4707 66.6997 27.4339Z" fill="#263238"/>
<path d="M62.7113 66.9714C62.7113 66.9714 63.8555 87.7876 65.1168 99.0585C65.2447 109.642 67.6759 133.551 67.6759 133.551H70.3482C70.7979 121.688 74.0991 110.611 71.9056 100.148C77.0238 79.6023 73.5178 66.9861 73.5178 66.9861L62.7113 66.9714Z" fill="#FFB573"/>
<path d="M65.6213 66.9861C65.6213 66.9861 71.1233 90.0762 72.6295 99.9103C74.2161 110.242 76.5778 130.29 76.4681 133.544H78.7749C78.7749 133.544 82.6501 113.261 79.0637 100.276C82.0213 71.0294 74.7243 67.008 74.7243 67.008L65.6213 66.9861Z" fill="#FFB573"/>
<path d="M52.4275 40.2804C52.2556 39.0338 49.9671 38.9278 49.9671 38.9278L48.8704 38.3757C48.6778 38.2579 48.4471 38.2194 48.2267 38.2685C48.0064 38.3176 47.8138 38.4505 47.6895 38.6389L47.324 39.2458C47.2175 39.4847 47.1999 39.7537 47.2743 40.0044C47.3487 40.2551 47.5102 40.471 47.7298 40.6131L48.0624 40.8544C48.6284 41.2589 49.298 41.4935 49.9927 41.5307L51.0054 41.5855C51.2278 41.5983 51.4506 41.5711 51.6634 41.5051C51.9154 41.4259 52.1303 41.2584 52.2686 41.0334C52.407 40.8084 52.4595 40.541 52.4165 40.2804H52.4275Z" fill="#FFB573"/>
<path d="M64.4807 47.5737C64.3418 47.7163 64.2686 47.7857 64.1663 47.8771L63.8775 48.133C63.6874 48.2939 63.4899 48.4438 63.2962 48.5937C62.9014 48.8861 62.4992 49.1567 62.0861 49.4126C61.2571 49.9115 60.3862 50.3372 59.4832 50.6848C57.6848 51.3844 55.7755 51.7559 53.8459 51.7815H53.6777C53.5896 51.7797 53.5017 51.7723 53.4145 51.7596C53.2428 51.7345 53.0747 51.6891 52.9137 51.6243C52.6426 51.5126 52.3947 51.3514 52.1825 51.1491C51.9078 50.8792 51.6837 50.5622 51.5208 50.2132C51.2928 49.7189 51.1223 49.2 51.0127 48.6668C50.8188 47.7491 50.6966 46.8177 50.6471 45.8811C50.5481 44.0871 50.5847 42.2882 50.7568 40.4997C50.7771 40.2998 50.8703 40.1144 51.0184 39.9787C51.1666 39.843 51.3595 39.7666 51.5604 39.7639C51.7613 39.7612 51.9562 39.8324 52.108 39.964C52.2597 40.0957 52.3578 40.2785 52.3836 40.4778V40.4997C52.581 42.2033 52.8077 43.9325 53.1148 45.5886C53.2501 46.3906 53.437 47.1832 53.6741 47.9612C53.7685 48.2795 53.8985 48.586 54.0616 48.8752C54.1274 48.9812 54.1932 49.0324 54.164 48.9958C54.1156 48.9435 54.0554 48.9034 53.9885 48.8788C53.9292 48.8519 53.8665 48.8334 53.802 48.824H53.7033C54.4893 48.7522 55.2688 48.6227 56.0357 48.4365C56.7957 48.2467 57.541 48.0023 58.2658 47.7053C58.9876 47.3964 59.6832 47.0296 60.3459 46.6086C60.6786 46.4038 61.0003 46.1881 61.3111 45.9578C61.4646 45.8445 61.6109 45.7275 61.7571 45.6105L61.9691 45.435L62.13 45.2925L62.225 45.2084C62.5439 44.9228 62.9616 44.7731 63.3892 44.7911C63.8168 44.8091 64.2205 44.9934 64.5142 45.3048C64.8079 45.6161 64.9683 46.0298 64.9614 46.4578C64.9545 46.8857 64.7806 47.294 64.477 47.5956L64.4807 47.5737Z" fill="#FFB573"/>
<path d="M66.2793 43.5158C63.3876 43.0332 60.3533 45 58.7813 46.6013C57.9697 49.0434 60.569 52.0119 60.569 52.0119C60.569 52.0119 64.2723 49.738 65.6067 48.1843C66.941 46.6305 67.9464 43.7936 66.2793 43.5158Z" fill="#E0E0E0"/>
<path d="M75.2361 66.7082C75.2361 66.7082 79.316 69.6036 80.0837 79.2294C80.3908 83.0205 80.9428 98.1446 82.1054 104.652C77.9194 107.642 65.3873 107.233 63.4241 105.485C63.9798 92.3245 58.9494 74.868 62.5979 66.8398C68.6373 66.0977 75.2361 66.7082 75.2361 66.7082Z" fill="#263238"/>
<path opacity="0.2" d="M71.0977 94.3133C71.1525 88.7821 70.3373 81.1707 67.8623 76.6594C68.7068 82.2894 71.0977 94.3133 71.0977 94.3133Z" fill="black"/>
<path d="M60.6823 47.9759C60.6823 51.1089 58.1854 52.754 61.0113 55.1669C61.1795 57.8722 61.3769 62.7161 62.2068 67.1287C63.0659 68.3241 69.3466 68.2254 75.8722 66.8106C75.0204 63.0269 75.3348 56.8632 77.5685 48.4329C77.6875 47.965 77.7086 47.4776 77.6304 47.0012C77.5523 46.5249 77.3766 46.0698 77.1144 45.6644C76.8522 45.2591 76.5091 44.9123 76.1066 44.6457C75.7041 44.3792 75.251 44.1986 74.7754 44.1153C74.238 44.0203 73.6787 43.9326 73.0865 43.8594C71.0456 43.5586 68.9857 43.4046 66.9228 43.3988C66.2574 43.3988 65.5665 43.4427 64.9084 43.4865C63.7652 43.5572 62.6919 44.0607 61.9068 44.8947C61.1217 45.7287 60.6838 46.8305 60.6823 47.9759Z" fill="#E0E0E0"/>
<path d="M74.0136 53.4156L66.3548 55.15C66.0634 55.216 65.8807 55.5058 65.9467 55.7972L68.4263 66.747C68.4923 67.0384 68.7821 67.2212 69.0735 67.1552L76.7323 65.4208C77.0237 65.3548 77.2065 65.065 77.1405 64.7736L74.6608 53.8238C74.5948 53.5324 74.305 53.3496 74.0136 53.4156Z" fill="#8A1114"/>
<path d="M67.6795 47.4385C67.6795 47.4385 66.4402 48.9227 65.4166 49.2664L65.2996 49.9975C66.594 49.8322 67.7887 49.2161 68.6739 48.2574L67.6795 47.4385Z" fill="#8A1114"/>
<path d="M64.3125 46.5428C64.3125 46.5428 64.2613 48.473 64.7951 49.4162L64.3966 50.045C63.5348 49.0643 63.0456 47.8115 63.0147 46.5062L64.3125 46.5428Z" fill="#8A1114"/>
<path d="M72.8342 36.9061C72.3443 38.851 71.7704 42.4374 73.0865 43.8522C73.0865 43.8522 68.184 45.1902 64.9888 49.5772C63.5265 44.9672 66.9374 43.3915 66.9374 43.3915C69.1711 43.026 69.2003 41.3955 68.8932 39.8308L72.8342 36.9061Z" fill="#FFB573"/>
<path opacity="0.2" d="M71.2293 38.1016L68.8969 39.8381C68.9723 40.1992 69.0163 40.5661 69.0285 40.9348C69.8767 40.8763 71.0831 40.0391 71.222 39.1654C71.2861 38.8139 71.2886 38.4539 71.2293 38.1016Z" fill="black"/>
<path d="M75.1081 33.4404C74.1686 36.5917 73.8396 37.948 71.8618 39.1873C68.8859 41.0481 65.2813 39.1325 65.2594 35.7472C65.2594 32.6983 66.7838 28.07 70.1728 27.5655C73.5617 27.061 76.0623 30.2854 75.1081 33.4404Z" fill="#FFB573"/>
<path d="M72.6514 28.8377C71.7631 31.8757 72.5235 35.0526 74.3367 35.4181C76.8556 34.4786 76.7313 31.6819 76.0879 30.4024C75.4445 29.1228 73.1632 27.0865 72.6514 28.8377Z" fill="#263238"/>
<path d="M74.0297 34.2958C72.6295 34.7601 72.3589 35.6996 72.3589 35.6996C72.3589 35.6996 73.3204 35.0196 74.2417 35.1476C74.108 34.8832 74.0355 34.592 74.0297 34.2958Z" fill="#263238"/>
<path d="M70.531 33.1442C70.4689 33.4038 70.2824 33.5793 70.1106 33.539C69.9388 33.4988 69.8474 33.2466 69.9096 32.987C69.9717 32.7275 70.1581 32.5483 70.33 32.5922C70.5018 32.6361 70.5786 32.8847 70.531 33.1442Z" fill="#263238"/>
<path d="M67.2883 32.3728C67.2262 32.6324 67.0398 32.8079 66.8679 32.764C66.6961 32.7201 66.6047 32.4752 66.6669 32.212C66.729 31.9487 66.9155 31.7769 67.0873 31.8208C67.2591 31.8647 67.3542 32.1096 67.2883 32.3728Z" fill="#263238"/>
<path d="M67.1677 31.8538L66.5791 31.5138C66.5791 31.5138 66.7875 32.0841 67.1677 31.8538Z" fill="#263238"/>
<path d="M67.9025 32.797C67.5309 33.3323 67.0853 33.8123 66.5791 34.2228C66.6903 34.3516 66.8277 34.4551 66.9822 34.5263C67.1367 34.5976 67.3046 34.6349 67.4748 34.6359L67.9025 32.797Z" fill="#ED893E"/>
<path d="M75.1264 36.6027C74.9328 36.83 74.6925 37.0129 74.4219 37.1391C74.1512 37.2652 73.8566 37.3317 73.5581 37.3338C72.794 37.3119 72.6624 36.4345 73.0828 35.7143C73.4484 35.0636 74.3112 34.2922 74.9765 34.6614C75.6419 35.0307 75.6455 36.0104 75.1264 36.6027Z" fill="#FFB573"/>
<path d="M71.1416 32.0256C71.1022 32.0061 71.072 31.972 71.0575 31.9305C70.9988 31.7394 70.8972 31.5642 70.7603 31.4184C70.6234 31.2727 70.4549 31.1602 70.2678 31.0897C70.2274 31.0785 70.1929 31.0521 70.1718 31.0159C70.1506 30.9797 70.1444 30.9366 70.1545 30.8959C70.1591 30.8759 70.1678 30.857 70.1801 30.8404C70.1923 30.8239 70.2078 30.81 70.2257 30.7997C70.2435 30.7894 70.2633 30.7829 70.2837 30.7806C70.3042 30.7783 70.3249 30.7802 70.3446 30.7863C70.5838 30.8696 70.8001 31.0079 70.976 31.1902C71.1519 31.3724 71.2825 31.5935 71.3573 31.8355C71.3646 31.8549 71.3679 31.8756 71.3669 31.8963C71.3658 31.917 71.3605 31.9373 71.3512 31.9559C71.342 31.9744 71.3289 31.9909 71.313 32.0041C71.297 32.0174 71.2785 32.0272 71.2585 32.0329C71.22 32.0453 71.1782 32.0427 71.1416 32.0256Z" fill="#263238"/>
<path d="M66.1112 30.8155C66.0697 30.8169 66.0292 30.8025 65.9978 30.7753C65.969 30.7453 65.9529 30.7054 65.9529 30.6638C65.9529 30.6222 65.969 30.5823 65.9978 30.5523C66.1608 30.3638 66.3669 30.2176 66.5986 30.1259C66.8303 30.0342 67.0807 29.9999 67.3285 30.0259C67.3703 30.0331 67.4076 30.0561 67.4328 30.0901C67.458 30.1242 67.4691 30.1666 67.4638 30.2087C67.4575 30.2499 67.4351 30.2869 67.4015 30.3116C67.3679 30.3362 67.3259 30.3466 67.2847 30.3403C67.0885 30.3207 66.8906 30.3491 66.7078 30.423C66.525 30.4968 66.3629 30.614 66.2355 30.7643C66.2197 30.7813 66.2004 30.7947 66.1789 30.8035C66.1575 30.8124 66.1343 30.8165 66.1112 30.8155Z" fill="#263238"/>
<path d="M70.4031 32.6288L69.8145 32.2852C69.8145 32.2852 70.0229 32.8591 70.4031 32.6288Z" fill="#263238"/>
<path d="M70.213 58.5851L67.2883 58.0184L67.6174 61.3781C67.6174 61.3781 69.8109 61.2831 71.0611 60.2814L71.1781 59.8427C71.0429 59.1152 70.8784 58.8483 70.213 58.5851Z" fill="#FFB573"/>
<path d="M65.5299 59.4515L65.8699 60.8736C65.9196 61.0779 66.044 61.2561 66.2186 61.3731C66.3932 61.4902 66.6053 61.5376 66.8131 61.5061L67.632 61.3781L67.303 58.0184L66.0563 58.4718C65.8639 58.5423 65.7039 58.681 65.6069 58.8616C65.5099 59.0422 65.4825 59.2521 65.5299 59.4515Z" fill="#FFB573"/>
<path d="M76.7532 46.5721C77.6419 48.2739 78.4174 50.0325 79.0747 51.8364C79.4037 52.7394 79.7144 53.6643 79.963 54.6112C80.2341 55.5923 80.4177 56.5955 80.5114 57.609C80.5333 57.8758 80.5443 58.15 80.548 58.4279V58.5266V58.6838C80.5391 58.7915 80.5195 58.898 80.4895 59.0018C80.4358 59.2034 80.352 59.3956 80.2409 59.5721C80.0715 59.8349 79.85 60.0601 79.5901 60.2338C79.2723 60.4453 78.9214 60.6022 78.5519 60.6981C78.272 60.7755 77.9875 60.8353 77.7001 60.8773C76.7036 61.0026 75.6981 61.0405 74.695 60.9906C72.7933 60.9028 70.9006 60.6756 69.0322 60.3106C68.8298 60.2771 68.6474 60.1685 68.5216 60.0065C68.3957 59.8445 68.3355 59.641 68.3531 59.4366C68.3706 59.2322 68.4645 59.042 68.6162 58.9038C68.7678 58.7656 68.9659 58.6896 69.1711 58.6911C70.999 58.6582 72.8488 58.6107 74.6292 58.4754C75.4816 58.4163 76.3284 58.2941 77.1627 58.1098C77.333 58.0704 77.5004 58.0191 77.6635 57.9563C77.7444 57.9339 77.8193 57.8939 77.8829 57.8393C77.8127 57.8808 77.7547 57.9401 77.7147 58.0111C77.6661 58.0881 77.6292 58.1719 77.605 58.2597C77.5921 58.309 77.5823 58.3591 77.5758 58.4096C77.5739 58.4339 77.5739 58.4584 77.5758 58.4827C77.5758 58.2963 77.5429 58.1171 77.5136 57.9124C77.1939 56.218 76.6952 54.5624 76.0257 52.9734C75.364 51.3246 74.6073 49.6466 73.8322 48.0636V48.0344C73.6751 47.6518 73.6679 47.2241 73.8119 46.8364C73.9559 46.4488 74.2407 46.1296 74.6095 45.9424C74.9783 45.7552 75.4041 45.7138 75.802 45.8265C76.2 45.9391 76.5409 46.1975 76.7569 46.5501L76.7532 46.5721Z" fill="#FFB573"/>
<path d="M74.9655 44.2287C77.0603 44.6162 77.9926 46.4989 79.5134 50.2571C79.0491 52.7869 75.3311 54.1177 75.3311 54.1177C75.3311 54.1177 73.1961 50.3339 72.7721 48.3269C72.348 46.3198 72.8525 43.8375 74.9655 44.2287Z" fill="#E0E0E0"/>
<path d="M70.5384 133.58C70.5212 133.532 70.488 133.49 70.4441 133.463C70.4002 133.436 70.3484 133.424 70.2971 133.43L67.8184 133.394C67.5648 133.377 67.3115 133.431 67.0873 133.551C65.9526 134.26 64.6781 134.715 63.351 134.885C62.8246 134.966 63.0622 135.854 64.3052 135.869C66.3561 135.891 66.729 135.737 68.4801 135.756C69.9754 135.774 69.2625 135.84 70.4506 135.869C70.7358 135.869 70.9697 135.69 70.9332 135.503L70.5384 133.58Z" fill="#263238"/>
<path d="M79.0893 133.58C79.0716 133.532 79.0383 133.491 78.9945 133.464C78.9508 133.437 78.8992 133.425 78.848 133.43L76.8264 133.394C76.5726 133.376 76.319 133.43 76.0952 133.551C75.364 134.059 75.4664 134.648 73.7993 134.885C73.2729 134.966 73.5325 135.854 74.7754 135.869C76.8263 135.891 76.7021 135.756 77.5356 135.756C78.3691 135.756 77.8573 135.84 79.0491 135.869C79.3342 135.869 79.5646 135.69 79.5207 135.503L79.0893 133.58Z" fill="#263238"/>
<path d="M66.3305 48.0015C67.3688 48.0453 69.2734 48.8971 69.884 49.8074C70.7467 48.9118 74.1174 46.8316 74.1759 44.013C73.7633 43.6163 73.2435 43.3493 72.6807 43.2452C72.6807 43.2452 68.184 45.4205 66.3305 48.0015Z" fill="#FAFAFA"/>
<path d="M64.6488 47.8552C64.6488 47.8552 64.3673 45.5777 67.1238 43.3659C66.846 43.1392 65.7566 43.3951 65.7566 43.3951C65.7566 43.3951 62.5358 44.7807 62.6308 48.367C63.2112 47.9403 63.9352 47.7567 64.6488 47.8552Z" fill="#FAFAFA"/>
<path d="M64.2394 48.8204C63.8409 49.0069 63.6837 50.3047 64.2394 50.6081C64.7951 50.9115 64.7402 49.6722 65.0619 49.2481C65.3837 48.8241 64.9376 48.495 64.2394 48.8204Z" fill="#8A1114"/>
<path d="M64.7293 49.3249C64.4441 49.6905 64.8133 50.9334 65.4275 50.9298C66.0417 50.9261 65.5116 49.833 65.6322 49.292C65.7529 48.7509 65.2155 48.6815 64.7293 49.3249Z" fill="#8A1114"/>
<path d="M64.8133 50.2498C64.1297 49.1932 64.0822 54.761 65.7383 56.9545C65.6286 54.7939 66.7875 51.7304 64.8133 50.2498Z" fill="#8A1114"/>
<path d="M64.7512 50.2023C64.4478 49.1275 62.9233 53.8362 63.7678 56.1357C64.2467 54.2749 66.0344 51.979 64.7512 50.2023Z" fill="#8A1114"/>
<path d="M69.8474 35.6412C70.0067 35.5718 70.1596 35.4886 70.3044 35.3926C70.3126 35.3844 70.3191 35.3747 70.3235 35.3641C70.3279 35.3534 70.3302 35.342 70.3302 35.3304C70.3302 35.3189 70.3279 35.3074 70.3235 35.2968C70.3191 35.2861 70.3126 35.2764 70.3044 35.2683C70.2892 35.2488 70.2672 35.2358 70.2429 35.2317C70.2185 35.2276 70.1935 35.2329 70.1728 35.2463C69.8468 35.4649 69.4759 35.6077 69.0874 35.664C68.6989 35.7203 68.3028 35.6887 67.9281 35.5717C67.9171 35.5669 67.9052 35.5642 67.8931 35.564C67.8811 35.5638 67.8691 35.5659 67.8579 35.5704C67.8467 35.5748 67.8365 35.5814 67.8278 35.5898C67.8192 35.5981 67.8122 35.6081 67.8075 35.6192C67.7992 35.642 67.8004 35.6671 67.8107 35.6891C67.821 35.711 67.8395 35.728 67.8623 35.7362C68.5131 35.9504 69.2201 35.9165 69.8474 35.6412Z" fill="#263238"/>
<path d="M59.2382 38.2185H40.5607V38.8254H59.2382V38.2185Z" fill="#8A1114"/>
<path d="M58.7922 38.8253H41.0067L41.7891 39.2494H58.0099L58.7922 38.8253Z" fill="#8A1114"/>
<path opacity="0.2" d="M58.7922 38.8253H41.0067L41.7891 39.2494H58.0099L58.7922 38.8253Z" fill="black"/>
<path d="M46.5453 21.9612C46.436 21.9602 46.3315 21.9164 46.2542 21.8391C46.1769 21.7618 46.1331 21.6573 46.1322 21.5481V20.1625C46.1331 20.0532 46.1769 19.9487 46.2542 19.8714C46.3315 19.7942 46.436 19.7503 46.5453 19.7494C46.6545 19.7503 46.7591 19.7942 46.8363 19.8714C46.9136 19.9487 46.9574 20.0532 46.9584 20.1625V21.5481C46.9574 21.6573 46.9136 21.7618 46.8363 21.8391C46.7591 21.9164 46.6545 21.9602 46.5453 21.9612Z" fill="#263238"/>
<path d="M47.2106 20.0784V19.8956C47.2106 19.7179 47.0666 19.5739 46.8889 19.5739H46.2016C46.0239 19.5739 45.8799 19.7179 45.8799 19.8956V20.0784C45.8799 20.256 46.0239 20.4001 46.2016 20.4001H46.8889C47.0666 20.4001 47.2106 20.256 47.2106 20.0784Z" fill="#263238"/>
<path d="M47.207 24.9698V21.0179C47.207 20.9749 47.1901 20.9336 47.1601 20.9029C47.13 20.8721 47.0891 20.8543 47.0461 20.8534H46.0444C46.0014 20.8543 45.9605 20.8721 45.9304 20.9029C45.9004 20.9336 45.8835 20.9749 45.8836 21.0179V24.9698C45.8837 25.2668 45.8209 25.5605 45.6992 25.8315C45.5776 26.1024 45.4 26.3445 45.178 26.5418C44.9568 26.7406 44.7797 26.9835 44.6582 27.2549C44.5367 27.5263 44.4734 27.8201 44.4724 28.1175V38.2551H48.6144V28.1175C48.6142 27.82 48.5512 27.526 48.4296 27.2545C48.308 26.983 48.1306 26.7401 47.9089 26.5418C47.6879 26.3439 47.5112 26.1016 47.3902 25.8307C47.2693 25.5598 47.2068 25.2665 47.207 24.9698Z" fill="#8A1114"/>
<path d="M48.6145 29.3167H45.8799V35.8715H48.6145V29.3167Z" fill="#E0E0E0"/>
<path d="M52.4969 38.2185H52.0034C52.1677 38.2296 52.3326 38.2296 52.4969 38.2185Z" fill="#8A1114"/>
<path d="M55.4764 38.2185H54.9792C55.1448 38.2295 55.3109 38.2295 55.4764 38.2185Z" fill="#8A1114"/>
<path opacity="0.2" d="M51.8352 30.4865V32.1498C51.8352 33.4732 52.5883 34.5736 53.5425 34.7089V37.6336C53.5425 38.0832 53.1038 38.2112 52.7638 38.2404H54.7123C54.3724 38.2112 53.9337 38.0832 53.9337 37.6336V34.7089C54.8878 34.5773 55.6409 33.4769 55.6409 32.1498V30.4865H51.8352Z" fill="#8A1114"/>
<path d="M74.4866 28.9218C73.0243 29.5432 68.1255 29.7333 66.2062 29.3166C68.1913 26.5126 72.6514 25.69 74.4866 28.9218Z" fill="#263238"/>
<path d="M79.0966 38.9387C79.0825 38.9385 79.0686 38.935 79.0559 38.9287C79.0433 38.9224 79.0322 38.9133 79.0235 38.9022C78.976 38.8364 77.8975 37.2497 77.8756 33.0017C77.8756 31.2286 77.3309 29.8029 76.4132 29.0827C76.1748 28.8857 75.8935 28.7473 75.5919 28.6787C75.2904 28.6102 74.9769 28.6133 74.6767 28.6878C74.665 28.6905 74.6528 28.6908 74.6409 28.6887C74.6291 28.6866 74.6177 28.6823 74.6075 28.6758C74.5973 28.6694 74.5885 28.661 74.5816 28.6511C74.5746 28.6413 74.5697 28.6301 74.5671 28.6184C74.5644 28.6066 74.5641 28.5944 74.5662 28.5826C74.5682 28.5707 74.5726 28.5593 74.5791 28.5491C74.5855 28.539 74.5939 28.5302 74.6038 28.5232C74.6136 28.5163 74.6248 28.5113 74.6365 28.5087C74.9627 28.4311 75.3024 28.4292 75.6294 28.5034C75.9564 28.5775 76.2621 28.7257 76.5229 28.9364C77.4917 29.6932 78.0511 31.1738 78.062 32.998C78.084 37.1803 79.1588 38.7815 79.1588 38.7962C79.1658 38.806 79.1708 38.8171 79.1735 38.8289C79.1762 38.8406 79.1765 38.8528 79.1745 38.8647C79.1724 38.8766 79.168 38.888 79.1616 38.8982C79.1551 38.9084 79.1467 38.9172 79.1368 38.9241C79.1246 38.9318 79.1109 38.9367 79.0966 38.9387Z" fill="#263238"/>
<path d="M105.404 17.4169C106.424 18.8134 106.42 20.9886 106.073 22.1694C104.245 21.3396 104.53 18.956 104.53 18.956L105.404 17.4169Z" fill="#263238"/>
<path d="M110.869 34.7015L111.922 35.8604L113.019 37.0376C113.75 37.8163 114.481 38.5767 115.234 39.3079C115.6 39.6735 115.965 40.039 116.357 40.3607C116.748 40.6825 117.088 41.0261 117.472 41.3222C117.856 41.6183 118.203 41.8816 118.543 42.1082C118.799 42.2799 119.068 42.4315 119.347 42.5615L118.788 42.4738C118.622 42.4538 118.454 42.4912 118.313 42.5798C118.313 42.5798 118.4 42.5798 118.525 42.5067C118.864 42.2988 119.179 42.0535 119.464 41.7755C120.213 41.0643 120.913 40.3033 121.559 39.498C122.257 38.6608 122.937 37.7688 123.613 36.8658C124.29 35.9628 124.966 35.0379 125.631 34.1276L125.664 34.0874C125.897 33.7799 126.231 33.5639 126.607 33.477C126.983 33.39 127.377 33.4377 127.722 33.6116C128.066 33.7856 128.338 34.0748 128.492 34.4289C128.645 34.783 128.669 35.1796 128.56 35.5497C128.19 36.7051 127.761 37.8411 127.277 38.9533C126.798 40.05 126.268 41.1467 125.668 42.2435C125.046 43.3842 124.327 44.4691 123.518 45.4862C123.036 46.0875 122.492 46.6364 121.895 47.124C121.5 47.4439 121.066 47.714 120.605 47.9283C119.927 48.2442 119.184 48.3969 118.437 48.3743C118.299 48.3691 118.162 48.3507 118.027 48.3194L117.874 48.2865C117.073 48.0946 116.298 47.8061 115.567 47.4274C114.954 47.1154 114.362 46.7649 113.794 46.3782C112.752 45.6766 111.757 44.906 110.818 44.0714C109.897 43.2708 109.041 42.4336 108.211 41.5818C107.802 41.1504 107.393 40.719 107.001 40.273C106.61 39.827 106.234 39.392 105.821 38.8838C105.36 38.2142 105.163 37.3976 105.268 36.5915C105.373 35.7853 105.773 35.0467 106.391 34.5181C107.009 33.9895 107.8 33.7082 108.613 33.7286C109.426 33.749 110.202 34.0695 110.793 34.6284L110.869 34.7015Z" fill="#E0E0E0"/>
<path d="M127.269 36.1017L130.527 36.2589L129.47 31.8719C129.47 31.8719 126.439 32.095 125.953 33.6523C125.902 33.826 125.913 34.0118 125.982 34.1788L126.582 35.6155C126.639 35.7534 126.733 35.8723 126.855 35.9584C126.977 36.0445 127.12 36.0942 127.269 36.1017Z" fill="#FF8B7B"/>
<path d="M133.433 33.6561L132.804 32.1937C132.682 31.9103 132.463 31.6792 132.187 31.5414C131.91 31.4036 131.594 31.3679 131.294 31.4406L129.466 31.8903L130.523 36.2773L132.716 35.3926C132.879 35.3282 133.028 35.2316 133.153 35.1085C133.278 34.9855 133.377 34.8386 133.443 34.6765C133.51 34.5144 133.544 34.3405 133.542 34.1652C133.54 33.9899 133.503 33.8167 133.433 33.6561Z" fill="#FF8B7B"/>
<path d="M103.166 96.854C99.7081 81.6422 97.5694 63.301 97.5694 63.301L111.75 63.0743C111.75 63.0743 111.553 87.7913 111.582 98.1446C111.619 108.911 112.364 132.604 112.364 132.604H108.062C108.062 132.604 102.508 110.161 103.166 96.854Z" fill="#263238"/>
<path d="M102.062 75.866L99.8178 79.1928C100.487 83.3458 101.28 87.9192 102.205 92.4012C102.593 85.5136 102.527 77.5111 102.062 75.866Z" fill="black"/>
<path d="M118.104 134.714C118.104 134.714 112.178 133.317 111.732 132.378H108.442L108.464 135.862H110.496L110.807 135.54L111.323 135.862C112.968 135.862 117.34 135.796 118.375 135.427C118.395 135.294 118.381 135.159 118.334 135.034C118.286 134.909 118.207 134.799 118.104 134.714Z" fill="#263238"/>
<path d="M89.9763 96.4264C91.6178 81.1268 91.5666 70.9051 93.5663 63.3669L106.479 63.1731C106.479 63.1731 101.101 87.4404 98.604 97.5377C96.1071 107.635 91.8335 132.597 91.8335 132.597H87.8486C87.8486 132.597 86.5947 108.257 89.9763 96.4264Z" fill="#263238"/>
<path d="M92.5427 66.3463C92.2575 68.1742 91.2412 78.9881 90.1883 82.9254C98.7978 86.7457 111.959 85.2432 112.364 82.7646C112.244 78.1729 111.999 66.3463 111.999 66.3463H92.5427Z" fill="#E0E0E0"/>
<path opacity="0.1" d="M93.0216 68.3533C93.6228 69.3275 94.3491 70.2186 95.1822 71.0037C95.1822 71.0037 93.325 70.6711 93.0216 68.3533Z" fill="black"/>
<path opacity="0.1" d="M110.328 70.9014C110.822 70.1654 111.222 69.3709 111.52 68.5361C111.52 68.5361 111.604 70.4043 110.328 70.9014Z" fill="black"/>
<path opacity="0.1" d="M93.102 69.7316C93.3006 70.4638 93.5943 71.1669 93.9758 71.8227C93.6278 71.6112 93.3559 71.2949 93.1989 70.9192C93.0419 70.5435 93.008 70.1277 93.102 69.7316Z" fill="black"/>
<path d="M95.5478 134.714C95.5478 134.714 91.8517 133.317 91.4277 132.378H88.1374L88.0716 135.862H90.766L91.084 135.54L91.5922 135.862C93.2373 135.862 94.7545 135.796 95.8 135.427C95.8249 135.296 95.8147 135.161 95.7704 135.036C95.7261 134.911 95.6492 134.799 95.5478 134.714Z" fill="#263238"/>
<path d="M93.091 32.8444C97.6535 32.2777 104.168 32.3326 108.537 33.0857C109.628 33.2836 110.63 33.8196 111.4 34.6181C112.171 35.4165 112.67 36.4368 112.829 37.5348C113.746 44.1335 112.957 55.664 112.372 67.2712C102.391 70.6857 91.8627 67.2236 91.8627 67.2236C91.4971 64.8839 92.316 57.2104 92.8644 53.1159C92.0418 48.8861 90.3053 44.0421 89.1428 38.4231C89.0017 37.7946 88.9941 37.1434 89.1205 36.5117C89.2469 35.88 89.5046 35.2819 89.8767 34.756C90.2489 34.2302 90.7273 33.7883 91.281 33.459C91.8347 33.1297 92.4513 32.9203 93.091 32.8444Z" fill="#263238"/>
<path opacity="0.1" d="M93.091 32.8444C97.6535 32.2777 104.168 32.3326 108.537 33.0857C109.628 33.2836 110.63 33.8196 111.4 34.6181C112.171 35.4165 112.67 36.4368 112.829 37.5348C113.746 44.1335 112.957 55.664 112.372 67.2712C102.391 70.6857 91.8627 67.2236 91.8627 67.2236C91.4971 64.8839 92.316 57.2104 92.8644 53.1159C92.0418 48.8861 90.3053 44.0421 89.1428 38.4231C89.0017 37.7946 88.9941 37.1434 89.1205 36.5117C89.2469 35.88 89.5046 35.2819 89.8767 34.756C90.2489 34.2302 90.7273 33.7883 91.281 33.459C91.8347 33.1297 92.4513 32.9203 93.091 32.8444Z" fill="white"/>
<path d="M97.606 24.1327L102.797 28.3917C102.125 30.1794 101.913 32.0475 104.844 32.7531C105.576 33.7219 104.479 35.4218 103.177 36.0835C100.099 35.3816 98.3262 34.5554 97.1307 32.9139C97.5073 31.6271 98.1068 26.7758 97.606 24.1327Z" fill="#FF8B7B"/>
<path opacity="0.2" d="M99.7702 25.9094L102.797 28.3881C102.633 28.8014 102.511 29.23 102.432 29.6676C101.258 29.7517 99.6277 28.5709 99.5545 27.496C99.5279 26.9584 99.601 26.4205 99.7702 25.9094Z" fill="black"/>
<path d="M96.8602 21.2299C97.3355 24.4872 97.4451 26.4174 99.2401 27.9456C101.942 30.2451 105.861 28.3733 106.373 25.0209C106.83 22.0122 105.978 17.1902 102.662 16.1812C101.926 15.9574 101.146 15.9242 100.394 16.0848C99.6421 16.2453 98.9433 16.5944 98.3632 17.0991C97.7832 17.6039 97.341 18.2478 97.078 18.9703C96.8151 19.6929 96.7402 20.4704 96.8602 21.2299Z" fill="#FF8B7B"/>
<path d="M96.8309 22.7325C97.1656 23.0952 97.598 23.3534 98.076 23.476C98.5541 23.5986 99.0574 23.5803 99.5253 23.4234C98.7429 22.6301 99.5033 19.7274 98.721 18.5466C100.235 18.8463 106.128 19.7018 106.691 17.6582C107.301 15.4647 104.863 13.7136 103.495 13.5491C103.898 14.463 103.861 15.1247 102.362 14.8286C100.863 14.5325 94.685 13.1067 95.3686 16.0021C93.3799 16.0021 93.2446 18.8975 94.6996 20.2831C95.4967 21.02 96.2113 21.8412 96.8309 22.7325Z" fill="#263238"/>
<path d="M95.7342 15.8631C94.5424 15.567 94.9153 14.4703 95.1822 14.3569C94.0671 14.6275 93.6614 15.7242 95.0067 16.2287C96.352 16.7332 95.7342 15.8631 95.7342 15.8631Z" fill="#263238"/>
<path d="M95.9426 23.2296C96.0535 23.5866 96.234 23.918 96.4737 24.2047C96.7134 24.4915 97.0075 24.7279 97.3391 24.9004C98.2348 25.3573 98.8855 24.6042 98.8014 23.661C98.732 22.8092 98.1873 21.548 97.2075 21.4675C96.992 21.4568 96.7772 21.5003 96.5828 21.594C96.3885 21.6877 96.2207 21.8286 96.0949 22.0039C95.969 22.1792 95.8891 22.3832 95.8625 22.5974C95.8359 22.8115 95.8635 23.0289 95.9426 23.2296Z" fill="#FF8B7B"/>
<path d="M101.434 21.3469C101.456 21.6138 101.616 21.8185 101.799 21.8039C101.982 21.7892 102.099 21.5553 102.077 21.2921C102.055 21.0288 101.894 20.8205 101.711 20.8351C101.529 20.8497 101.412 21.08 101.434 21.3469Z" fill="#263238"/>
<path d="M104.621 21.2701C104.643 21.537 104.804 21.7417 104.987 21.7235C105.17 21.7052 105.283 21.4785 105.261 21.2116C105.239 20.9448 105.078 20.7437 104.896 20.7583C104.713 20.7729 104.6 21.0033 104.621 21.2701Z" fill="#263238"/>
<path d="M103.974 21.6284C104.359 22.4142 104.851 23.1426 105.437 23.7927C105.002 24.2752 104.183 24.1582 104.183 24.1582L103.974 21.6284Z" fill="#FF5652"/>
<path d="M100.94 20.4987C100.915 20.5058 100.888 20.5058 100.863 20.4987C100.844 20.4915 100.826 20.4804 100.811 20.466C100.796 20.4516 100.784 20.4344 100.775 20.4152C100.767 20.3961 100.763 20.3754 100.763 20.3546C100.763 20.3338 100.767 20.3131 100.776 20.294C100.863 20.0593 101.005 19.8487 101.19 19.6797C101.375 19.5106 101.598 19.3879 101.839 19.3216C101.881 19.3133 101.923 19.3218 101.958 19.3451C101.993 19.3684 102.018 19.4047 102.026 19.4459C102.034 19.4871 102.026 19.5299 102.002 19.5648C101.979 19.5998 101.943 19.6241 101.902 19.6323C101.71 19.6864 101.535 19.7853 101.389 19.9207C101.244 20.0561 101.132 20.2241 101.064 20.411C101.053 20.4349 101.035 20.4556 101.014 20.4709C100.992 20.4862 100.967 20.4958 100.94 20.4987Z" fill="#263238"/>
<path d="M106.471 20.0747C106.445 20.0749 106.419 20.0682 106.396 20.0554C106.373 20.0426 106.354 20.0241 106.34 20.0016C106.242 19.8307 106.106 19.6855 105.941 19.5781C105.776 19.4706 105.588 19.404 105.393 19.3838C105.372 19.3833 105.352 19.3788 105.333 19.3704C105.314 19.3621 105.297 19.3501 105.283 19.3352C105.269 19.3202 105.257 19.3026 105.25 19.2834C105.242 19.2641 105.239 19.2436 105.239 19.2229C105.241 19.1809 105.26 19.1413 105.29 19.1126C105.321 19.0839 105.362 19.0684 105.404 19.0694C105.652 19.092 105.89 19.1734 106.1 19.307C106.31 19.4405 106.485 19.6223 106.61 19.8371C106.631 19.8728 106.637 19.915 106.628 19.9552C106.618 19.9953 106.594 20.0303 106.559 20.0528C106.533 20.0702 106.502 20.078 106.471 20.0747Z" fill="#263238"/>
<path d="M97.1307 32.9139C97.1307 32.9139 102.457 41.0079 104.483 46.7183C106.479 40.0171 106.709 34.6541 104.848 32.7531C104.249 33.5098 101.836 34.5334 97.1307 32.9139Z" fill="#E0E0E0"/>
<path d="M95.3138 38.8948L94.7983 40.3571L94.2865 41.8779C93.9465 42.8906 93.6358 43.9069 93.347 44.9049C93.2007 45.4058 93.0728 45.903 92.9558 46.3929C92.8388 46.8827 92.7255 47.369 92.645 47.8333C92.5646 48.2975 92.5025 48.7472 92.4622 49.1493C92.4414 49.4573 92.4414 49.7663 92.4622 50.0743L92.2722 49.5405C92.1186 49.2517 91.9614 49.1749 91.9541 49.1749C91.9468 49.1749 92.0053 49.248 92.1186 49.3285C92.4589 49.5292 92.8207 49.6911 93.1971 49.811C94.1693 50.1377 95.1622 50.3991 96.1692 50.5934C97.2404 50.8054 98.3445 50.959 99.4595 51.1418C100.575 51.3246 101.722 51.4525 102.826 51.6097H102.878C103.263 51.6649 103.617 51.8548 103.876 52.1457C104.135 52.4366 104.282 52.8099 104.292 53.1992C104.302 53.5886 104.174 53.9689 103.931 54.2728C103.687 54.5768 103.344 54.7847 102.962 54.8597C101.771 55.0858 100.569 55.2518 99.3608 55.3569C98.1544 55.4666 96.937 55.5214 95.705 55.5141C94.4059 55.5118 93.1094 55.398 91.8298 55.1741C91.0785 55.0339 90.3435 54.8171 89.6363 54.527C89.1652 54.3328 88.7205 54.0798 88.3129 53.7739C87.7122 53.3301 87.2239 52.7517 86.8871 52.085C86.825 51.9608 86.7748 51.8311 86.7373 51.6974L86.697 51.5476C86.4835 50.7517 86.3669 49.933 86.3497 49.1091C86.332 48.4221 86.3576 47.7347 86.4265 47.0509C86.5434 45.8018 86.7449 44.5621 87.0297 43.3403C87.2893 42.1485 87.6183 40.9969 87.9729 39.8599C88.1557 39.2933 88.3385 38.7303 88.5432 38.1709C88.748 37.6116 88.9527 37.0742 89.2049 36.471C89.5348 35.683 90.1583 35.0542 90.9435 34.7176C91.7287 34.381 92.614 34.363 93.4122 34.6673C94.2104 34.9717 94.8589 35.5746 95.2207 36.3486C95.5824 37.1225 95.6289 38.0068 95.3504 38.8144L95.3138 38.8948Z" fill="#E0E0E0"/>
<path d="M103.346 52.0813L106.577 52.4835L104.793 56.6182C104.793 56.6182 101.843 55.887 101.631 54.2638C101.61 54.0844 101.653 53.9032 101.752 53.752L102.585 52.4396C102.665 52.3143 102.779 52.2143 102.914 52.1509C103.048 52.0875 103.198 52.0634 103.346 52.0813Z" fill="#FF8B7B"/>
<path d="M109.001 55.5434L108.131 56.8888C107.962 57.1474 107.707 57.3377 107.412 57.4261C107.116 57.5144 106.798 57.495 106.515 57.3713L104.793 56.6182L106.577 52.4835L108.592 53.7302C108.739 53.8211 108.867 53.9406 108.967 54.0815C109.068 54.2224 109.139 54.3819 109.177 54.5508C109.215 54.7196 109.219 54.8944 109.189 55.0649C109.159 55.2353 109.095 55.398 109.001 55.5434Z" fill="#FF8B7B"/>
<path d="M97.3903 31.6562C96.7111 31.7641 96.0886 32.0992 95.6245 32.6068C97.0721 34.5386 99.1356 35.9185 101.474 36.5185C101.306 35.9591 101.81 34.325 102.366 33.7401C100.322 33.4366 97.3903 31.6562 97.3903 31.6562Z" fill="#FAFAFA"/>
<path d="M103.006 31.8573C103.699 31.9833 104.358 32.2536 104.94 32.6506C104.94 32.6506 106.987 34.9355 104.574 36.226C104.738 35.6667 103.477 34.1751 102.348 33.74C104.388 33.4366 103.006 31.8573 103.006 31.8573Z" fill="#FAFAFA"/>
<path d="M102.574 35.0416C100.958 34.1751 98.9586 33.2356 99.5143 34.7527C100.07 36.2699 99.3352 36.7963 100.059 37.3118C100.783 37.8273 102.253 36.4125 102.739 36.2151C103.225 36.0177 102.574 35.0416 102.574 35.0416Z" fill="#8A1114"/>
<path d="M103.718 35.0306C104.951 34.2007 106.493 33.3014 106.219 34.782C105.945 36.2626 106.625 36.7781 106.087 37.2789C105.55 37.7798 104.168 36.3796 103.729 36.1822C103.291 35.9848 103.718 35.0306 103.718 35.0306Z" fill="#8A1114"/>
<path d="M102.355 34.9246C102.72 34.7052 103.612 34.4274 104.055 35.0233C104.497 35.6192 104.355 36.6172 103.744 36.7379C103.526 36.7819 103.3 36.7661 103.09 36.6921C102.88 36.6181 102.694 36.4886 102.552 36.3174C102.688 36.099 102.742 35.8398 102.706 35.5852C102.67 35.3306 102.546 35.0968 102.355 34.9246Z" fill="#8A1114"/>
<path d="M92.0565 132.714L87.622 132.838L87.388 130.327L92.539 130.634L92.0565 132.714Z" fill="black"/>
<path d="M112.522 132.707L107.733 132.838L107.202 130.663L112.551 130.144L112.522 132.707Z" fill="black"/>
<path d="M102.084 51.2295C99.8449 50.5675 97.5359 50.1687 95.2041 50.0414C94.7069 50.0706 94.5168 61.3049 94.557 65.9003C94.557 66.5218 101.708 66.3975 103.536 66.116C103.638 64.8328 103.66 55.4666 104.135 52.5383C104.172 52.3092 104.13 52.0746 104.017 51.8718C103.905 51.6691 103.727 51.5099 103.514 51.4196C103.061 51.237 102.569 51.1716 102.084 51.2295Z" fill="white"/>
<path d="M139.516 33.2466H119.219V33.8242H139.516V33.2466Z" fill="#8A1114"/>
<path d="M139.092 33.8242H119.643L120.389 34.23H138.35L139.092 33.8242Z" fill="#8A1114"/>
<path opacity="0.2" d="M139.092 33.8242H119.643L120.389 34.23H138.35L139.092 33.8242Z" fill="black"/>
<path d="M130.205 25.0868C130.206 25.2526 130.157 25.4148 130.066 25.5529C129.974 25.6911 129.844 25.799 129.691 25.8629C129.538 25.9268 129.369 25.9439 129.207 25.912C129.044 25.8801 128.894 25.8007 128.777 25.6838C128.66 25.5668 128.579 25.4177 128.547 25.2552C128.514 25.0927 128.531 24.9241 128.594 24.771C128.657 24.6178 128.764 24.4868 128.902 24.3947C129.04 24.3025 129.202 24.2533 129.368 24.2533C129.477 24.2528 129.586 24.274 129.688 24.3157C129.789 24.3574 129.882 24.4187 129.959 24.4961C130.037 24.5736 130.099 24.6656 130.141 24.767C130.183 24.8684 130.205 24.9771 130.205 25.0868Z" fill="#8A1114"/>
<path d="M138.142 30.5668C137.578 28.8212 136.506 27.2836 135.063 26.1506L135.29 25.8618C136.791 27.0406 137.906 28.6407 138.493 30.4572L138.142 30.5668Z" fill="#8A1114"/>
<path d="M133.795 25.3098C133.385 25.0836 132.959 24.8892 132.519 24.7285L132.643 24.3849C133.101 24.5569 133.544 24.7635 133.97 25.0027L133.795 25.3098Z" fill="#8A1114"/>
<path d="M129.368 25.0868C127.166 25.0868 125.054 25.9615 123.497 27.5185C121.94 29.0755 121.065 31.1872 121.065 33.3891H137.67C137.67 31.1872 136.795 29.0755 135.238 27.5185C133.681 25.9615 131.57 25.0868 129.368 25.0868Z" fill="#8A1114"/>
<path opacity="0.3" d="M122.21 32.647H124.356C124.43 32.6457 124.501 32.6188 124.558 32.5708C124.615 32.5228 124.653 32.4567 124.666 32.3837C125.098 30.1098 126.454 28.1284 128.611 26.4065C128.66 26.3672 128.695 26.313 128.71 26.2521C128.725 26.1913 128.721 26.1271 128.696 26.0692C128.672 26.0114 128.629 25.9631 128.575 25.9316C128.521 25.9001 128.458 25.8871 128.395 25.8947C126.764 26.11 125.247 26.8503 124.074 28.0038C122.901 29.1573 122.135 30.6614 121.892 32.2887C121.886 32.3337 121.89 32.3794 121.903 32.4228C121.917 32.4661 121.939 32.5061 121.969 32.5401C121.999 32.574 122.036 32.6011 122.078 32.6195C122.119 32.638 122.164 32.6473 122.21 32.647Z" fill="white"/>
<path d="M102.954 25.1087C103.125 25.1162 103.297 25.1076 103.466 25.0831C103.489 25.0787 103.509 25.0654 103.522 25.0463C103.535 25.0271 103.54 25.0035 103.536 24.9808C103.53 24.9569 103.515 24.9361 103.495 24.922C103.475 24.9079 103.45 24.9015 103.426 24.904C103.044 24.9608 102.654 24.9304 102.286 24.8152C101.917 24.6999 101.58 24.5028 101.298 24.2386C101.29 24.2299 101.28 24.2229 101.269 24.2182C101.258 24.2134 101.246 24.2109 101.234 24.2109C101.222 24.2109 101.211 24.2134 101.2 24.2182C101.189 24.2229 101.179 24.2299 101.17 24.2386C101.154 24.2561 101.146 24.2789 101.146 24.3026C101.146 24.3263 101.154 24.3491 101.17 24.3666C101.654 24.8243 102.289 25.0884 102.954 25.1087Z" fill="#263238"/>
</svg>
